<svg width="17" height="19" viewBox="0 0 17 19" fill="none" xmlns="http://www.w3.org/2000/svg">
<path d="M13.75 18.3333C12.9861 18.3333 12.3368 18.066 11.8021 17.5312C11.2674 16.9965 11 16.3472 11 15.5833C11 15.4917 11.0229 15.2778 11.0688 14.9417L4.62917 11.1833C4.38472 11.4125 4.10208 11.5922 3.78125 11.7223C3.46042 11.8525 3.11667 11.9173 2.75 11.9167C1.98611 11.9167 1.33681 11.6493 0.802083 11.1146C0.267361 10.5799 0 9.93056 0 9.16667C0 8.40278 0.267361 7.75347 0.802083 7.21875C1.33681 6.68403 1.98611 6.41667 2.75 6.41667C3.11667 6.41667 3.46042 6.48175 3.78125 6.61192C4.10208 6.74208 4.38472 6.92144 4.62917 7.15L11.0688 3.39167C11.0382 3.28472 11.0192 3.18175 11.0119 3.08275C11.0046 2.98375 11.0006 2.87283 11 2.75C11 1.98611 11.2674 1.33681 11.8021 0.802083C12.3368 0.267361 12.9861 0 13.75 0C14.5139 0 15.1632 0.267361 15.6979 0.802083C16.2326 1.33681 16.5 1.98611 16.5 2.75C16.5 3.51389 16.2326 4.16319 15.6979 4.69792C15.1632 5.23264 14.5139 5.5 13.75 5.5C13.3833 5.5 13.0396 5.43492 12.7188 5.30475C12.3979 5.17458 12.1153 4.99522 11.8708 4.76667L5.43125 8.525C5.46181 8.63194 5.48106 8.73522 5.489 8.83483C5.49694 8.93444 5.50061 9.04506 5.5 9.16667C5.49939 9.28828 5.49572 9.39919 5.489 9.49942C5.48228 9.59964 5.46303 9.70261 5.43125 9.80833L11.8708 13.5667C12.1153 13.3375 12.3979 13.1581 12.7188 13.0286C13.0396 12.899 13.3833 12.8339 13.75 12.8333C14.5139 12.8333 15.1632 13.1007 15.6979 13.6354C16.2326 14.1701 16.5 14.8194 16.5 15.5833C16.5 16.3472 16.2326 16.9965 15.6979 17.5312C15.1632 18.066 14.5139 18.3333 13.75 18.3333ZM13.75 16.5C14.0097 16.5 14.2276 16.4123 14.4036 16.2369C14.5796 16.0615 14.6673 15.8437 14.6667 15.5833C14.6661 15.323 14.5781 15.1054 14.4027 14.9307C14.2273 14.7559 14.0097 14.6679 13.75 14.6667C13.4903 14.6654 13.2727 14.7534 13.0973 14.9307C12.9219 15.1079 12.8339 15.3254 12.8333 15.5833C12.8327 15.8412 12.9207 16.0591 13.0973 16.2369C13.2739 16.4147 13.4915 16.5024 13.75 16.5ZM2.75 10.0833C3.00972 10.0833 3.22758 9.99533 3.40358 9.81933C3.57958 9.64333 3.66728 9.42578 3.66667 9.16667C3.66606 8.90756 3.57806 8.69 3.40267 8.514C3.22728 8.338 3.00972 8.25 2.75 8.25C2.49028 8.25 2.27272 8.338 2.09733 8.514C1.92194 8.69 1.83394 8.90756 1.83333 9.16667C1.83272 9.42578 1.92072 9.64364 2.09733 9.82025C2.27394 9.99686 2.4915 10.0846 2.75 10.0833ZM14.4036 3.40267C14.579 3.22789 14.6667 3.01033 14.6667 2.75C14.6667 2.48967 14.5787 2.27211 14.4027 2.09733C14.2267 1.92256 14.0091 1.83456 13.75 1.83333C13.4909 1.83211 13.2733 1.92011 13.0973 2.09733C12.9213 2.27456 12.8333 2.49211 12.8333 2.75C12.8333 3.00789 12.9213 3.22575 13.0973 3.40358C13.2733 3.58142 13.4909 3.66911 13.75 3.66667C14.0091 3.66422 14.227 3.57622 14.4036 3.40267Z" fill="black"/>
</svg>
